name Walk5.mot
datacolumns 19
datarows 27
range 2.21000000 2.34000000
endheader

                time	   L_ground_force_vx	   L_ground_force_vy	   L_ground_force_vz	   L_ground_force_px	   L_ground_force_py	   L_ground_force_pz	   R_ground_force_vx	   R_ground_force_vy	   R_ground_force_vz	   R_ground_force_px	   R_ground_force_py	   R_ground_force_pz	   L_ground_torque_x	   L_ground_torque_y	   L_ground_torque_z	   R_ground_torque_x	   R_ground_torque_y	   R_ground_torque_z	
          2.21000000	          4.50484068	         39.74841457	         -5.39203257	          0.00149937	          0.00000000	          0.00033962	         -0.00000000	          0.00000000	          0.00000000	          0.00000000	          0.00000000	          0.00000000	          0.00000000	         -0.08222346	          0.00000000	          0.00000000	         -0.00000000	          0.00000000	
          2.21500000	          2.90007098	         66.52271968	         -8.26680612	         -0.10442009	          0.00000000	         -0.01835546	         -0.00000000	          0.00000000	          0.00000000	          0.00000000	          0.00000000	          0.00000000	          0.00000000	         -0.10211730	          0.00000000	          0.00000000	         -0.00000000	          0.00000000	
          2.22000000	          1.49800363	         96.60537733	        -11.14615344	         -0.20226902	          0.00000000	         -0.03573077	         -0.00000000	          0.00000000	          0.00000000	          0.00000000	          0.00000000	          0.00000000	          0.00000000	         -0.12690072	          0.00000000	          0.00000000	         -0.00000000	          0.00000000	
          2.22500000	          0.26657045	        128.94023973	        -13.80666430	         -0.28701483	          0.00000000	         -0.05092842	         -0.00000000	          0.00000000	          0.00000000	          0.00000000	          0.00000000	          0.00000000	          0.00000000	         -0.15509077	          0.00000000	          0.00000000	         -0.00000000	          0.00000000	
          2.23000000	         -1.02563200	        162.32867620	        -16.00967820	         -0.35642233	          0.00000000	         -0.06359109	         -0.00000000	          0.00000000	          0.00000000	          0.00000000	          0.00000000	          0.00000000	          0.00000000	         -0.18432498	          0.00000000	          0.00000000	         -0.00000000	          0.00000000	
          2.23500000	         -2.76497092	        195.70141576	        -17.52044883	         -0.41022183	          0.00000000	         -0.07370597	         -0.00000000	          0.00000000	          0.00000000	          0.00000000	          0.00000000	          0.00000000	          0.00000000	         -0.21182161	          0.00000000	          0.00000000	         -0.00000000	          0.00000000	
          2.24000000	         -5.35876876	        228.22131446	        -18.12898584	         -0.44943643	          0.00000000	         -0.08148340	         -0.00000000	          0.00000000	          0.00000000	          0.00000000	          0.00000000	          0.00000000	          0.00000000	         -0.23509141	          0.00000000	          0.00000000	          0.00000000	          0.00000000	
          2.24500000	         -9.09932930	        259.24989278	        -17.67838883	         -0.47584935	          0.00000000	         -0.08726137	         -0.00000000	          0.00000000	          0.00000000	          0.00000000	          0.00000000	          0.00000000	          0.00000000	         -0.25285251	          0.00000000	          0.00000000	          0.00000000	          0.00000000	
          2.25000000	        -14.06527425	        288.34125765	        -16.09172174	         -0.49159993	          0.00000000	         -0.09142391	         -0.00000000	          0.00000000	         -0.00000000	          0.00000000	          0.00000000	         -0.00000000	          0.00000000	         -0.26574005	          0.00000000	          0.00000000	          0.00000000	          0.00000000	
          2.25500000	        -20.09702148	        315.28277758	        -13.38468665	         -0.49890344	          0.00000000	         -0.09434388	         -0.00000000	          0.00000000	         -0.00000000	         -0.00000000	          0.00000000	         -0.00000000	          0.00000000	         -0.27585046	          0.00000000	          0.00000000	          0.00000000	          0.00000000	
          2.26000000	        -26.87349088	        340.06947393	         -9.66518454	         -0.49986624	          0.00000000	         -0.09634574	         -0.00000000	         -0.00000000	         -0.00000000	         -0.00000000	          0.00000000	         -0.00000000	          0.00000000	         -0.28451175	          0.00000000	          0.00000000	          0.00000000	          0.00000000	
          2.26500000	        -34.03985485	        362.79260560	         -5.12253598	         -0.49637346	          0.00000000	         -0.09769032	         -0.00000000	         -0.00000000	         -0.00000000	         -0.00000000	          0.00000000	         -0.00000000	          0.00000000	         -0.29037548	          0.00000000	          0.00000000	          0.00000000	          0.00000000	
          2.27000000	        -41.30827423	        383.53282871	         -0.00500983	         -0.49002424	          0.00000000	         -0.09857522	          0.00000000	         -0.00000001	         -0.00000000	         -0.00000000	          0.00000000	         -0.00000000	          0.00000000	         -0.28908811	          0.00000000	          0.00000000	          0.00000000	          0.00000000	
          2.27500000	        -48.49450896	        402.37894652	          5.41145665	         -0.48209940	          0.00000000	         -0.09914615	          0.00000000	         -0.00000001	         -0.00000000	         -0.00000000	          0.00000000	         -0.00000000	          0.00000000	         -0.27361189	          0.00000000	          0.00000000	          0.00000000	          0.00000000	
          2.28000000	        -55.50014236	        419.59384408	         10.85653618	         -0.47356764	          0.00000000	         -0.09950846	          0.00000000	         -0.00000002	         -0.00000000	         -0.00000000	          0.00000000	         -0.00000000	          0.00000000	         -0.23544798	          0.00000000	          0.00000000	          0.00000000	          0.00000000	
          2.28500000	        -62.28016265	        435.73928274	         16.09133794	         -0.46512010	          0.00000000	         -0.09973221	          0.00000000	         -0.00000003	         -0.00000001	         -0.00000000	          0.00000000	         -0.00000000	          0.00000000	         -0.16641192	          0.00000000	          0.00000000	          0.00000000	          0.00000000	
          2.29000000	        -68.81522534	        451.63048508	         20.92636353	         -0.45721630	          0.00000000	         -0.09985851	          0.00000000	         -0.00000004	         -0.00000001	         -0.00000000	          0.00000000	         -0.00000000	          0.00000000	         -0.06192929	          0.00000000	          0.00000000	          0.00000000	          0.00000000	
          2.29500000	        -75.08039285	        468.17162340	         25.23428518	         -0.45013490	          0.00000000	         -0.09990889	          0.00000000	         -0.00000005	         -0.00000001	         -0.00000000	          0.00000000	         -0.00000000	          0.00000000	          0.07630556	          0.00000000	          0.00000000	          0.00000000	          0.00000000	
          2.30000000	        -81.01792488	        486.18506376	         28.95331371	         -0.44401872	          0.00000000	         -0.09989224	          0.00000000	         -0.00000006	         -0.00000001	         -0.00000000	          0.00000000	         -0.00000000	          0.00000000	          0.24121678	          0.00000000	          0.00000000	          0.00000000	          0.00000000	
          2.30500000	        -86.53018017	        506.27740144	         32.07943685	         -0.43891226	          0.00000000	         -0.09981160	          0.00000001	         -0.00000007	         -0.00000001	         -0.00000000	          0.00000000	         -0.00000000	          0.00000000	          0.42298321	          0.00000000	          0.00000000	          0.00000000	          0.00000000	
          2.31000000	        -91.49113042	        528.74756207	         34.65079304	         -0.43479068	          0.00000000	         -0.09966858	          0.00000001	         -0.00000008	         -0.00000001	         -0.00000000	          0.00000000	         -0.00000000	          0.00000000	          0.61199448	          0.00000000	          0.00000000	         -0.00000000	          0.00000000	
          2.31500000	        -95.76702167	        553.54891469	         36.73242364	         -0.43158311	          0.00000000	         -0.09946678	          0.00000001	         -0.00000008	         -0.00000000	         -0.00000000	          0.00000000	         -0.00000000	          0.00000000	          0.79998600	          0.00000000	          0.00000000	         -0.00000000	          0.00000000	
          2.32000000	        -99.23961712	        580.32637304	         38.40758368	         -0.42918867	          0.00000000	         -0.09921430	          0.00000001	         -0.00000006	          0.00000000	         -0.00000000	          0.00000000	         -0.00000000	          0.00000000	          0.97969374	          0.00000000	          0.00000000	         -0.00000000	          0.00000000	
          2.32500000	       -101.82918253	        608.51954468	         39.77287138	         -0.42748801	          0.00000000	         -0.09892357	          0.00000001	         -0.00000004	          0.00000001	          0.00000000	          0.00000000	          0.00000000	          0.00000000	          1.14452224	          0.00000000	          0.00000000	         -0.00000000	          0.00000000	
          2.33000000	       -103.50751227	        637.46576234	         40.93142820	         -0.42635618	          0.00000000	         -0.09860865	          0.00000001	          0.00000001	          0.00000002	          0.00000000	          0.00000000	          0.00000000	          0.00000000	          1.28825417	          0.00000000	          0.00000000	         -0.00000000	          0.00000000	
          2.33500000	       -104.29226046	        666.46830380	         41.98649038	         -0.42567190	          0.00000000	         -0.09828351	          0.00000000	          0.00000008	          0.00000003	          0.00000000	          0.00000000	          0.00000000	          0.00000000	          1.40576628	          0.00000000	          0.00000000	         -0.00000001	          0.00000000	
          2.34000000	       -104.23528162	        694.84568565	         43.03695607	         -0.42532184	          0.00000000	         -0.09796231	         -0.00000000	          0.00000018	          0.00000005	          0.00000000	          0.00000000	          0.00000000	          0.00000000	          1.49375695	          0.00000000	          0.00000000	         -0.00000001	          0.00000000	
